subject_07
version=1
nRows=354
nColumns=3
inDegrees=yes
endheader
time	r_shoulder_elev	r_elbow_flex
31.4200	17.928737	115.866789
31.4300	17.928737	115.726001
31.4400	17.928737	115.589932
31.4500	17.928737	115.466827
31.4600	17.928737	115.358718
31.4700	17.928737	115.259192
31.4800	17.928737	115.153272
31.4900	17.928737	115.019919
31.5000	17.928737	114.837162
31.5100	17.928737	114.589048
31.5200	17.928737	114.272463
31.5300	17.928737	113.901152
31.5400	17.928737	113.504389
31.5500	17.928737	113.119248
31.5600	17.928737	112.777991
31.5700	17.928737	112.494710
31.5800	17.928737	112.256775
31.5900	17.928737	112.025736
31.6000	17.928737	111.749069
31.6100	17.928737	111.379490
31.6200	17.928737	110.894650
31.6300	17.928737	110.308669
31.6400	17.928737	109.669441
31.6500	17.928737	109.041198
31.6600	17.928737	108.478402
31.6700	17.928737	108.001613
31.6800	17.928737	107.586261
31.6900	17.928737	107.170505
31.7000	17.928737	106.680348
31.7100	17.928737	106.062179
31.7200	17.928737	105.308690
31.7300	17.928737	104.465880
31.7400	17.928737	103.616419
31.7500	17.928737	102.844961
31.7600	17.928737	102.199600
31.7700	17.928737	101.666557
31.7800	17.928737	101.170528
31.7900	17.928737	100.602615
31.8000	17.928737	99.865569
31.8100	17.928737	98.917729
31.8200	17.928737	97.796295
31.8300	17.928737	96.608416
31.8400	17.928737	95.491786
31.8500	17.928737	94.559726
31.8600	17.928737	93.853069
31.8700	17.928737	93.319350
31.8800	17.928737	92.829098
31.8900	17.928737	92.223902
31.9000	17.928737	91.377590
31.9100	17.928737	90.246110
31.9200	17.928737	88.885980
31.9300	17.928737	87.433804
31.9400	17.928737	86.055038
31.9500	17.928737	84.882420
31.9600	17.928737	83.968173
31.9700	17.928737	83.267982
31.9800	17.928737	82.661546
31.9900	17.928737	81.999988
32.0000	17.928737	81.160469
32.0100	17.928737	80.086946
32.0200	17.928737	78.803074
32.0300	17.928737	77.395333
32.0400	17.928737	75.976179
32.0500	17.928737	74.643512
32.0600	17.928737	73.451922
32.0700	17.928737	72.404186
32.0800	17.928737	71.461997
32.0900	17.928737	70.567513
32.1000	17.928737	69.664784
32.1100	17.928737	68.712992
32.1200	17.928737	67.689421
32.1300	17.928737	66.585669
32.1400	17.928737	65.403132
32.1500	17.928737	64.152112
32.1600	17.928737	62.854680
32.1700	17.928737	61.547315
32.1800	17.928737	60.278068
32.1900	17.928737	59.095498
32.2000	17.928737	58.031666
32.2100	17.928737	57.086181
32.2200	17.928737	56.219867
32.2300	17.928737	55.363558
32.2400	17.928737	54.440971
32.2500	17.928737	53.397539
32.2600	17.928737	52.223110
32.2700	17.928737	50.957916
32.2800	17.928737	49.677946
32.2900	17.928737	48.465003
32.3000	17.928737	47.373965
32.3100	17.928737	46.411623
32.3200	17.928737	45.536640
32.3300	17.928737	44.680707
32.3400	17.928737	43.781173
32.3500	17.928737	42.809893
32.3600	17.928737	41.784653
32.3700	17.928737	40.757663
32.3800	17.928737	39.786662
32.3900	17.928737	38.902843
32.4000	17.928737	38.091816
32.4100	17.928737	37.298007
32.4200	17.928737	36.451644
32.4300	17.928737	35.506131
32.4400	17.928737	34.467611
32.4500	17.928737	33.401040
32.4600	17.928737	32.407461
32.4700	17.928737	31.580687
32.4800	17.928737	30.962195
32.4900	17.928737	30.515308
32.5000	17.928737	30.132377
32.5100	17.928737	29.674419
32.5200	17.928737	29.027887
32.5300	17.928737	28.154596
32.5400	17.928737	27.112609
32.5500	17.928737	26.037590
32.5600	17.928737	25.090954
32.5700	17.928737	24.395733
32.5800	17.928737	23.986820
32.5900	17.928737	23.796631
32.6000	17.928737	23.682357
32.6100	17.928737	23.483410
32.6200	17.928737	23.085012
32.6300	17.928737	22.461563
32.6400	17.928737	21.682468
32.6500	17.928737	20.879357
32.6600	17.928737	20.189920
32.6700	17.928737	19.702864
32.6800	17.928737	19.426877
32.6900	17.928737	19.295048
32.7000	17.928737	19.200334
32.7100	17.928737	19.044479
32.7200	17.928737	18.778114
32.7300	17.928737	18.415208
32.7400	17.928737	18.017708
32.7500	17.928737	17.660057
32.7600	17.928737	17.391843
32.7700	17.928737	17.216430
32.7800	17.928737	17.094693
32.7900	17.928737	16.970270
32.8000	17.928737	16.802360
32.8100	17.928737	16.588880
32.8200	17.928737	16.368109
32.8300	17.928737	16.198052
32.8400	17.928737	16.124153
32.8500	17.928737	16.152023
32.8600	17.928737	16.239651
32.8700	17.928737	16.314080
32.8800	17.928737	16.305393
32.8900	17.928737	16.181885
32.9000	17.928737	15.969030
32.9100	17.928737	15.741944
32.9200	17.928737	15.593399
32.9300	17.928737	15.591267
32.9400	17.928737	15.744874
32.9500	17.928737	15.996450
32.9600	17.928737	16.242810
32.9700	17.928737	16.378721
32.9800	17.928737	16.343164
32.9900	17.928737	16.147919
33.0000	17.928737	15.875641
33.0100	17.928737	15.646113
33.0200	17.928737	15.565456
33.0300	17.928737	15.680358
33.0400	17.928737	15.956778
33.0500	17.928737	16.292577
33.0600	17.928737	16.558974
33.0700	17.928737	16.653407
33.0800	17.928737	16.541617
33.0900	17.928737	16.271470
33.1000	17.928737	15.953171
33.1100	17.928737	15.714565
33.1200	17.928737	15.650365
33.1300	17.928737	15.786027
33.1400	17.928737	16.070304
33.1500	17.928737	16.398199
33.1600	17.928737	16.653676
33.1700	17.928737	16.754134
33.1800	17.928737	16.679053
33.1900	17.928737	16.472936
33.2000	17.928737	16.223717
33.2100	17.928737	16.026173
33.2200	17.928737	15.946909
33.2300	17.928737	16.004003
33.2400	17.928737	16.167227
33.2500	17.928737	16.376115
33.2600	17.928737	16.566490
33.2700	17.928737	16.694043
33.2800	17.928737	16.746424
33.2900	17.928737	16.741200
33.3000	17.928737	16.713118
33.3100	17.928737	16.697737
33.3200	17.928737	16.718649
33.3300	17.928737	16.782577
33.3400	17.928737	16.882494
33.3500	17.928737	17.005501
33.3600	17.928737	17.140924
33.3700	17.928737	17.284981
33.3800	17.928737	17.440742
33.3900	17.928737	17.614452
33.4000	17.928737	17.810696
33.4100	17.928737	18.028851
33.4200	17.928737	18.262237
33.4300	17.928737	18.500024
33.4400	17.928737	18.730949
33.4500	17.928737	18.947507
33.4600	17.928737	19.149393
33.4700	17.928737	19.345263
33.4800	17.928737	19.552141
33.4900	17.928737	19.792098
33.5000	17.928737	20.086414
33.5100	17.928737	20.448317
33.5200	17.928737	20.876473
33.5300	17.928737	21.352033
33.5400	17.928737	21.841554
33.5500	17.928737	22.306378
33.5600	17.928737	22.716236
33.5700	17.928737	23.062397
33.5800	17.928737	23.364589
33.5900	17.928737	23.667474
33.6000	17.928737	24.026237
33.6100	17.928737	24.485690
33.6200	17.928737	25.060964
33.6300	17.928737	25.728397
33.6400	17.928737	26.431925
33.6500	17.928737	27.103999
33.6600	17.928737	27.693404
33.6700	17.928737	28.188399
33.6800	17.928737	28.624424
33.6900	17.928737	29.071541
33.7000	17.928737	29.605432
33.7100	17.928737	30.273606
33.7200	17.928737	31.071663
33.7300	17.928737	31.941185
33.7400	17.928737	32.791992
33.7500	17.928737	33.540699
33.7600	17.928737	34.149468
33.7700	17.928737	34.647485
33.7800	17.928737	35.124123
33.7900	17.928737	35.694569
33.8000	17.928737	36.451028
33.8100	17.928737	37.419950
33.8200	17.928737	38.544424
33.8300	17.928737	39.701169
33.8400	17.928737	40.747049
33.8500	17.928737	41.577094
33.8600	17.928737	42.170138
33.8700	17.928737	42.602360
33.8800	17.928737	43.021715
33.8900	17.928737	43.592353
33.9000	17.928737	44.430771
33.9100	17.928737	45.559312
33.9200	17.928737	46.895872
33.9300	17.928737	48.284091
33.9400	17.928737	49.552024
33.9500	17.928737	50.575995
33.9600	17.928737	51.324746
33.9700	17.928737	51.867472
33.9800	17.928737	52.344186
33.9900	17.928737	52.911639
34.0000	17.928737	53.686815
34.0100	17.928737	54.709421
34.0200	17.928737	55.935676
34.0300	17.928737	57.262493
34.0400	17.928737	58.569465
34.0500	17.928737	59.760769
34.0600	17.928737	60.791600
34.0700	17.928737	61.672183
34.0800	17.928737	62.452452
34.0900	17.928737	63.197543
34.1000	17.928737	63.965674
34.1100	17.928737	64.796040
34.1200	17.928737	65.707659
34.1300	17.928737	66.704547
34.1400	17.928737	67.780760
34.1500	17.928737	68.921185
34.1600	17.928737	70.098753
34.1700	17.928737	71.272634
34.1800	17.928737	72.392695
34.1900	17.928737	73.412277
34.2000	17.928737	74.305898
34.2100	17.928737	75.084067
34.2200	17.928737	75.796619
34.2300	17.928737	76.520028
34.2400	17.928737	77.331398
34.2500	17.928737	78.278777
34.2600	17.928737	79.360566
34.2700	17.928737	80.523973
34.2800	17.928737	81.684605
34.2900	17.928737	82.759806
34.3000	17.928737	83.701633
34.3100	17.928737	84.514958
34.3200	17.928737	85.252441
34.3300	17.928737	85.988598
34.3400	17.928737	86.784856
34.3500	17.928737	87.661914
34.3600	17.928737	88.592464
34.3700	17.928737	89.517758
34.3800	17.928737	90.379993
34.3900	17.928737	91.154533
34.4000	17.928737	91.865553
34.4100	17.928737	92.576315
34.4200	17.928737	93.357532
34.4300	17.928737	94.248472
34.4400	17.928737	95.230057
34.4500	17.928737	96.224663
34.4600	17.928737	97.125349
34.4700	17.928737	97.843155
34.4800	17.928737	98.351550
34.4900	17.928737	98.706775
34.5000	17.928737	99.032518
34.5100	17.928737	99.472927
34.5200	17.928737	100.132658
34.5300	17.928737	101.029613
34.5400	17.928737	102.081760
34.5500	17.928737	103.135438
34.5600	17.928737	104.024758
34.5700	17.928737	104.637948
34.5800	17.928737	104.962871
34.5900	17.928737	105.092403
34.6000	17.928737	105.187162
34.6100	17.928737	105.411157
34.6200	17.928737	105.867228
34.6300	17.928737	106.558914
34.6400	17.928737	107.393750
34.6500	17.928737	108.225156
34.6600	17.928737	108.913908
34.6700	17.928737	109.382705
34.6800	17.928737	109.641464
34.6900	17.928737	109.774653
34.7000	17.928737	109.898751
34.7100	17.928737	110.110352
34.7200	17.928737	110.448135
34.7300	17.928737	110.884190
34.7400	17.928737	111.345941
34.7500	17.928737	111.755922
34.7600	17.928737	112.069378
34.7700	17.928737	112.292042
34.7800	17.928737	112.471040
34.7900	17.928737	112.665265
34.8000	17.928737	112.911364
34.8100	17.928737	113.203018
34.8200	17.928737	113.494039
34.8300	17.928737	113.723530
34.8400	17.928737	113.850105
34.8500	17.928737	113.877401
34.8600	17.928737	113.857195
34.8700	17.928737	113.867415
34.8800	17.928737	113.974894
34.8900	17.928737	114.200731
34.9000	17.928737	114.505645
34.9100	17.928737	114.803719
34.9200	17.928737	114.999582
34.9300	17.928737	115.032627
34.9400	17.928737	114.907794
34.9500	17.928737	114.697837
